<svg id="Layer_5" enable-background="new 0 0 64 64" height="512" viewBox="0 0 64 64" width="512" xmlns="http://www.w3.org/2000/svg"><g><g><g><path d="m21 22h41v4h-41z" fill="#b27946"/></g><g><path d="m26 38h12 14 10v4h-60v-4h6 8 6z" fill="#b27946"/></g><g><path d="m26 26h36v12h-36z" fill="#e6e9ed"/></g><g><path d="m21 6h41v16h-41z" fill="#e6e9ed"/></g><g><path d="m62 2v4h-34.94c-.49-.88-1.15-1.67-1.95-2.31-1.37-1.09-3.06-1.69-4.81-1.69z" fill="#b27946"/></g><g><path d="m54 22h-12v-12h10v4h-2v4c0 2.21 1.79 4 4 4z" fill="#ff826e"/></g><g><path d="m58 14v4c0 2.21-1.79 4-4 4s-4-1.79-4-4v-4h2z" fill="#fc6e51"/></g><g><path d="m59 48v4h-2-10-2v-4c0-1.1.9-2 2-2h10c1.1 0 2 .9 2 2z" fill="#aab2bd"/></g><g><path d="m56 30v4c0 2.21-1.79 4-4 4s-4-1.79-4-4v-4z" fill="#fcd770"/></g><g><path d="m42 30v4c0 2.21-1.79 4-4 4s-4-1.79-4-4v-4z" fill="#fcd770"/></g><g><path d="m39 48v4h-2-10-2v-4c0-1.1.9-2 2-2h10c1.1 0 2 .9 2 2z" fill="#aab2bd"/></g><g><path d="m16 33v5h-8c-2.21 0-4-1.79-4-4v-1.87c0-2 .8-3.93 2.22-5.35 1.15-1.15 2.66-1.91 4.28-2.14l4.5-.64v1c0 1.66 1.34 3 3 3 .83 0 1.58-.34 2.12-.88s.88-1.29.88-2.12v-1l4.85.61c1.95.24 3.88-.58 5.06-2.15.71-.95 1.09-2.1 1.09-3.28v-3.18h5v4.01c0 .67-.07 1.34-.2 1.99h-.01c-.3 1.46-.95 2.83-1.88 4-.23.29-.47.56-.73.82-1.45 1.45-3.32 2.4-5.35 2.72-1.43.23-2.83.46-2.83.46v8h-4v-1c0-2.21-1.79-4-4-4z" fill="#b4dd7f"/></g><g><path d="m37 12.5v3.5h-5v-3.5c0-1.38 1.12-2.5 2.5-2.5.69 0 1.32.28 1.77.73s.73 1.08.73 1.77z" fill="#f0d0b4"/></g><g><path d="m27.06 6c.06.12.12.24.18.36.5 1.03.76 2.17.76 3.34 0 .86-.2 1.7-.58 2.46l-.32.63-.04.04c-.53-.51-1.26-.83-2.06-.83h-1c-1.32-.66-2.53-1.53-3.58-2.58l-.42-.42c-1.3 1.3-2.98 2.16-4.79 2.46l-3.21.54h-1c-.8 0-1.53.32-2.06.83l-.04-.04-.32-.63c-.38-.76-.58-1.6-.58-2.46 0-1.17.26-2.31.76-3.34.49-1.02 1.22-1.94 2.13-2.67 1.37-1.09 3.06-1.69 4.81-1.69h4.3.3c1.75 0 3.44.6 4.81 1.69.8.64 1.46 1.43 1.95 2.31z" fill="#656d78"/></g><g><path d="m27.06 12.83c.58.54.94 1.31.94 2.17 0 .83-.34 1.58-.88 2.12s-1.29.88-2.12.88h-1.35c.23-.63.35-1.3.35-2v-4h1c.8 0 1.53.32 2.06.83z" fill="#f0d0b4"/></g><g><path d="m23.65 18c-.47 1.36-1.43 2.5-2.67 3.21-.87.5-1.89.79-2.98.79-1.1 0-2.12-.29-3-.81-1.23-.71-2.18-1.84-2.65-3.19-.23-.63-.35-1.3-.35-2v-4l3.21-.54c1.81-.3 3.49-1.16 4.79-2.46l.42.42c1.05 1.05 2.26 1.92 3.58 2.58v4c0 .7-.12 1.37-.35 2z" fill="#f0d0b4"/></g><g><path d="m22 37v1h-6v-5h2c2.21 0 4 1.79 4 4z" fill="#f0d0b4"/></g><g><path d="m21 24v1c0 .83-.34 1.58-.88 2.12s-1.29.88-2.12.88c-1.66 0-3-1.34-3-3v-1-2.81c.88.52 1.9.81 3 .81 1.09 0 2.11-.29 2.98-.79l.02.03z" fill="#f0d0b4"/></g><g><path d="m19 48v4h-2-10-2v-4c0-1.1.9-2 2-2h10c1.1 0 2 .9 2 2z" fill="#aab2bd"/></g><g><path d="m12.35 18h-1.35c-.83 0-1.58-.34-2.12-.88s-.88-1.29-.88-2.12c0-.86.36-1.63.94-2.17.53-.51 1.26-.83 2.06-.83h1v4c0 .7.12 1.37.35 2z" fill="#f0d0b4"/></g></g><g><path d="m58 53h2v-5c0-1.654-1.346-3-3-3h-10c-1.654 0-3 1.346-3 3v5h2v8h-8v-8h2v-5c0-1.654-1.346-3-3-3h-10c-1.654 0-3 1.346-3 3v5h2v8h-8v-8h2v-5c0-1.654-1.346-3-3-3h-10c-1.654 0-3 1.346-3 3v5h2v8h-5v2h62v-2h-5zm-12-5c0-.552.448-1 1-1h10c.552 0 1 .448 1 1v3h-12zm10 5v4h-8v-4zm-8 6h8v2h-8zm-22-11c0-.552.448-1 1-1h10c.552 0 1 .448 1 1v3h-12zm10 5v4h-8v-4zm-8 6h8v2h-8zm-22-11c0-.552.448-1 1-1h10c.552 0 1 .448 1 1v3h-12zm10 5v4h-8v-4zm-8 6h8v2h-8z"/><path d="m20.299 1h-.299-4.299c-1.968 0-3.898.677-5.436 1.907-2.075 1.66-3.265 4.137-3.265 6.795 0 1.003.237 2.008.687 2.906l.048.096c-.46.651-.735 1.44-.735 2.296 0 2.206 1.794 4 4 4h.685c.525 1.1 1.324 2.043 2.315 2.736v1.397l-3.645.521c-1.823.261-3.545 1.122-4.846 2.423-1.617 1.617-2.509 3.768-2.509 6.057v1.866c0 1.13.391 2.162 1.026 3h-3.026v6h62v-5-1-36zm40.701 24h-24.238c.339-.637.608-1.307.81-2h23.428zm-25-10h-3v-2.5c0-.827.673-1.5 1.5-1.5s1.5.673 1.5 1.5zm21 3c0 1.654-1.346 3-3 3s-3-1.346-3-3v-3h6zm-6-5h-2v5c0 1.13.391 2.162 1.026 3h-7.026v-10h8zm10 8h-3.026c.635-.838 1.026-1.87 1.026-3v-5h-6v-4h-12v12h-3.048c.03-.326.048-.655.048-.987v-7.513c0-1.93-1.57-3.5-3.5-3.5s-3.5 1.57-3.5 3.5v6.676c0 .962-.317 1.915-.895 2.684-.96 1.28-2.538 1.952-4.133 1.754l-3.972-.497v-1.381c.991-.693 1.79-1.636 2.315-2.736h.685c2.206 0 4-1.794 4-4 0-.856-.275-1.645-.734-2.296l.048-.096c.449-.898.686-1.903.686-2.906 0-.933-.155-1.841-.435-2.702h32.435zm-36-5v-3c1.103 0 2 .897 2 2s-.897 2-2 2h-.08c.047-.328.08-.66.08-1zm36-11h-33.381c-.48-.745-1.078-1.419-1.78-2h35.161zm-49.484-.532c1.183-.947 2.67-1.468 4.185-1.468h4.299.299c1.516 0 3.002.521 4.186 1.468 1.598 1.28 2.515 3.187 2.515 5.234 0 .572-.117 1.143-.331 1.675-.509-.236-1.071-.377-1.669-.377h-.744c-1.155-.602-2.209-1.367-3.13-2.288l-1.126-1.126-.707.707c-1.16 1.16-2.629 1.916-4.247 2.186l-3.129.521h-.917c-.598 0-1.16.141-1.669.377-.214-.533-.331-1.103-.331-1.675 0-2.047.917-3.954 2.516-5.234zm-.516 12.532c-1.103 0-2-.897-2-2s.897-2 2-2v3c0 .34.033.672.08 1zm2-1v-3.153l2.374-.396c1.702-.284 3.272-.995 4.594-2.075.912.87 1.93 1.617 3.032 2.228v3.396c0 2.757-2.243 5-5 5s-5-2.243-5-5zm5 7c.695 0 1.366-.105 2-.295v1.295.883.117c0 1.103-.897 2-2 2s-2-.897-2-2v-.133-.867-1.295c.634.19 1.305.295 2 .295zm-13 11v-1.866c0-1.754.684-3.404 1.924-4.644.998-.998 2.317-1.658 3.715-1.858l3.377-.482c.08 2.135 1.83 3.85 3.984 3.85 2.161 0 3.916-1.725 3.987-3.869l3.738.467c2.293.292 4.591-.685 5.98-2.539.835-1.112 1.295-2.491 1.295-3.883v-2.176h3v3.013c0 2.304-.897 4.47-2.526 6.099-1.31 1.31-2.968 2.154-4.795 2.441-1.438.226-2.843.46-2.843.46l-.836.14v7.847h-2c0-2.757-2.243-5-5-5h-8v-2h-2v2c0 1.103.897 2 2 2h5v3h-7c-1.654 0-3-1.346-3-3zm30 0v-3h6v3c0 1.654-1.346 3-3 3s-3-1.346-3-3zm-2-4.971v4.971c0 1.13.391 2.162 1.026 3h-7.026v-6.151c.532-.087 1.257-.205 1.989-.32 1.443-.227 2.798-.739 4.011-1.5zm-15 4.971c1.654 0 3 1.346 3 3h-4v-3zm43 7h-58v-2h5 15 38zm-12-7v-3h6v3c0 1.654-1.346 3-3 3s-3-1.346-3-3zm6.974 3c.635-.838 1.026-1.87 1.026-3v-5h-10v5c0 1.13.391 2.162 1.026 3h-6.051c.634-.838 1.025-1.87 1.025-3v-5h-9.957c.661-.419 1.281-.909 1.845-1.474.169-.169.322-.349.478-.526h25.634v10z"/></g></g></svg>